<svg width="17" height="17" viewBox="0 0 17 17" fill="none" xmlns="http://www.w3.org/2000/svg">
<path d="M11.15 8.29999C11.15 8.84389 10.9887 9.37557 10.6866 9.82781C10.3844 10.28 9.9549 10.6325 9.45241 10.8407C8.94991 11.0488 8.39698 11.1033 7.86353 10.9971C7.33008 10.891 6.84008 10.6291 6.45548 10.2445C6.07089 9.85994 5.80898 9.36993 5.70287 8.83649C5.59676 8.30304 5.65122 7.7501 5.85936 7.24761C6.0675 6.74511 6.41997 6.31562 6.87221 6.01345C7.32444 5.71127 7.85613 5.54999 8.40003 5.54999C9.12912 5.55081 9.82811 5.84081 10.3437 6.35636C10.8592 6.8719 11.1492 7.5709 11.15 8.29999ZM14.9 8.79999C14.9 10.0856 14.5188 11.3423 13.8046 12.4112C13.0904 13.4801 12.0752 14.3132 10.8875 14.8052C9.69975 15.2972 8.39282 15.4259 7.13194 15.1751C5.87106 14.9243 4.71287 14.3052 3.80383 13.3962C2.89479 12.4871 2.27573 11.329 2.02492 10.0681C1.77412 8.8072 1.90284 7.50027 2.39481 6.31255C2.88678 5.12483 3.7199 4.10966 4.78882 3.39544C5.85774 2.68121 7.11445 2.29999 8.40003 2.29999C10.1234 2.30181 11.7756 2.98721 12.9942 4.2058C14.2128 5.4244 14.8982 7.07664 14.9 8.79999ZM13.9 8.79999C13.8992 8.0597 13.7491 7.32717 13.4587 6.64621C13.1683 5.96526 12.7436 5.34986 12.2099 4.83682C11.6762 4.32379 11.0445 3.92365 10.3527 3.66034C9.66078 3.39703 8.9229 3.27596 8.18315 3.30436C5.2394 3.41811 2.8919 5.86999 2.90003 8.81561C2.90285 10.1566 3.39742 11.4499 4.29003 12.4506C4.65354 11.9234 5.1153 11.4712 5.65003 11.1187C5.69562 11.0886 5.74982 11.0743 5.80433 11.0779C5.85885 11.0815 5.91068 11.1029 5.9519 11.1387C6.63139 11.7265 7.49976 12.0499 8.39815 12.0499C9.29655 12.0499 10.1649 11.7265 10.8444 11.1387C10.8856 11.1029 10.9375 11.0815 10.992 11.0779C11.0465 11.0743 11.1007 11.0886 11.1463 11.1187C11.6817 11.471 12.1441 11.9232 12.5082 12.4506C13.4052 11.4463 13.9007 10.1466 13.9 8.79999Z" fill="black"/>
</svg>
