<svg width="17" height="17" viewBox="0 0 17 17" fill="none" xmlns="http://www.w3.org/2000/svg">
<path d="M14.4538 8.75375L9.95379 13.2537C9.85997 13.3476 9.73272 13.4003 9.60004 13.4003C9.46735 13.4003 9.34011 13.3476 9.24629 13.2537C9.15247 13.1599 9.09976 13.0327 9.09976 12.9C9.09976 12.7673 9.15247 12.6401 9.24629 12.5462L12.8932 8.9H3.10004C2.96743 8.9 2.84025 8.84732 2.74648 8.75355C2.65272 8.65978 2.60004 8.53261 2.60004 8.4C2.60004 8.26739 2.65272 8.14021 2.74648 8.04644C2.84025 7.95268 2.96743 7.9 3.10004 7.9H12.8932L9.24629 4.25375C9.15247 4.15993 9.09976 4.03268 9.09976 3.9C9.09976 3.76732 9.15247 3.64007 9.24629 3.54625C9.34011 3.45243 9.46735 3.39972 9.60004 3.39972C9.73272 3.39972 9.85997 3.45243 9.95379 3.54625L14.4538 8.04625C14.5003 8.09268 14.5372 8.14783 14.5623 8.20853C14.5875 8.26923 14.6004 8.33429 14.6004 8.4C14.6004 8.4657 14.5875 8.53077 14.5623 8.59147C14.5372 8.65217 14.5003 8.70731 14.4538 8.75375Z" fill="#999999"/>
</svg>
