<svg width="17" height="17" viewBox="0 0 17 17" fill="none" xmlns="http://www.w3.org/2000/svg">
<path d="M14.4 3.79999H2.40002C2.26742 3.79999 2.14024 3.85267 2.04647 3.94643C1.9527 4.0402 1.90002 4.16738 1.90002 4.29999V12.8C1.90002 13.0652 2.00538 13.3196 2.19292 13.5071C2.38045 13.6946 2.63481 13.8 2.90002 13.8H13.9C14.1652 13.8 14.4196 13.6946 14.6071 13.5071C14.7947 13.3196 14.9 13.0652 14.9 12.8V4.29999C14.9 4.16738 14.8473 4.0402 14.7536 3.94643C14.6598 3.85267 14.5326 3.79999 14.4 3.79999ZM13.9 12.8H2.90002V5.43686L8.0619 10.1687C8.15414 10.2534 8.27481 10.3004 8.40002 10.3004C8.52524 10.3004 8.6459 10.2534 8.73815 10.1687L13.9 5.43686V12.8Z" fill="black"/>
</svg>
