<svg width="792" height="45" viewBox="0 0 792 45" fill="none" xmlns="http://www.w3.org/2000/svg">
<g clip-path="url(#clip0_3_16)">
<mask id="mask0_3_16" style="mask-type:alpha" maskUnits="userSpaceOnUse" x="0" y="0" width="792" height="45">
<rect x="0.760025" y="0.399994" width="791.23" height="44" fill="url(#paint0_linear_3_16)"/>
</mask>
<g mask="url(#mask0_3_16)">
</g>
<rect width="1" height="1" transform="translate(6.76003 21.9)" fill="#999999"/>
<rect width="1" height="1" transform="translate(13.76 21.9)" fill="#999999"/>
<rect width="1" height="1" transform="translate(20.76 21.9)" fill="#999999"/>
<rect width="1" height="1" transform="translate(27.76 21.9)" fill="#999999"/>
<rect width="1" height="1" transform="translate(34.76 21.9)" fill="#999999"/>
<rect width="1" height="1" transform="translate(41.76 21.9)" fill="#999999"/>
<rect width="1" height="1" transform="translate(48.76 21.9)" fill="#999999"/>
<rect width="1" height="1" transform="translate(55.76 21.9)" fill="#999999"/>
<rect width="1" height="1" transform="translate(62.76 21.9)" fill="#999999"/>
<rect width="1" height="1" transform="translate(69.76 21.9)" fill="#999999"/>
<rect width="1" height="1" transform="translate(76.76 21.9)" fill="#999999"/>
<rect width="1" height="1" transform="translate(83.76 21.9)" fill="#999999"/>
<rect width="1" height="1" transform="translate(90.76 21.9)" fill="#999999"/>
<rect width="1" height="1" transform="translate(97.76 21.9)" fill="#999999"/>
<rect width="1" height="1" transform="translate(104.76 21.9)" fill="#999999"/>
<rect width="1" height="1" transform="translate(111.76 21.9)" fill="#999999"/>
<rect width="1" height="1" transform="translate(118.76 21.9)" fill="#999999"/>
<rect width="1" height="1" transform="translate(125.76 21.9)" fill="#999999"/>
<rect width="1" height="1" transform="translate(132.76 21.9)" fill="#999999"/>
<rect width="1" height="1" transform="translate(139.76 21.9)" fill="#999999"/>
<rect width="1" height="1" transform="translate(146.76 21.9)" fill="#999999"/>
<rect width="1" height="1" transform="translate(153.76 21.9)" fill="#999999"/>
<rect width="1" height="1" transform="translate(160.76 21.9)" fill="#999999"/>
<rect width="1" height="1" transform="translate(167.76 21.9)" fill="#999999"/>
<rect width="1" height="1" transform="translate(174.76 21.9)" fill="#999999"/>
<rect width="1" height="1" transform="translate(181.76 21.9)" fill="#999999"/>
<rect width="1" height="1" transform="translate(188.76 21.9)" fill="#999999"/>
<rect width="1" height="1" transform="translate(195.76 21.9)" fill="#999999"/>
<rect width="1" height="1" transform="translate(202.76 21.9)" fill="#999999"/>
<rect width="1" height="1" transform="translate(209.76 21.9)" fill="#999999"/>
<rect width="1" height="1" transform="translate(216.76 21.9)" fill="#999999"/>
<rect width="1" height="1" transform="translate(223.76 21.9)" fill="#999999"/>
<rect width="1" height="1" transform="translate(230.76 21.9)" fill="#999999"/>
<rect width="1" height="1" transform="translate(237.76 21.9)" fill="#999999"/>
<rect width="1" height="1" transform="translate(244.76 21.9)" fill="#999999"/>
<rect width="1" height="1" transform="translate(251.76 21.9)" fill="#999999"/>
<rect width="1" height="1" transform="translate(258.76 21.9)" fill="#999999"/>
<rect width="1" height="1" transform="translate(265.76 21.9)" fill="#999999"/>
<rect width="1" height="1" transform="translate(272.76 21.9)" fill="#999999"/>
<rect width="1" height="1" transform="translate(279.76 21.9)" fill="#999999"/>
<rect width="1" height="1" transform="translate(286.76 21.9)" fill="#999999"/>
<rect width="1" height="1" transform="translate(293.76 21.9)" fill="#999999"/>
<rect width="1" height="1" transform="translate(300.76 21.9)" fill="#999999"/>
<rect width="1" height="1" transform="translate(307.76 21.9)" fill="#999999"/>
<rect width="1" height="1" transform="translate(314.76 21.9)" fill="#999999"/>
<rect width="1" height="1" transform="translate(321.76 21.9)" fill="#999999"/>
<rect width="1" height="1" transform="translate(328.76 21.9)" fill="#999999"/>
<rect width="1" height="1" transform="translate(335.76 21.9)" fill="#999999"/>
<rect width="1" height="1" transform="translate(342.76 21.9)" fill="#999999"/>
<rect width="1" height="1" transform="translate(349.76 21.9)" fill="#999999"/>
<rect width="1" height="1" transform="translate(356.76 21.9)" fill="#999999"/>
<rect width="1" height="1" transform="translate(363.76 21.9)" fill="#999999"/>
<rect width="1" height="1" transform="translate(370.76 21.9)" fill="#999999"/>
<rect width="1" height="1" transform="translate(377.76 21.9)" fill="#999999"/>
<rect width="1" height="1" transform="translate(384.76 21.9)" fill="#999999"/>
<rect width="1" height="1" transform="translate(391.76 21.9)" fill="#999999"/>
<rect width="1" height="1" transform="translate(398.76 21.9)" fill="#999999"/>
<rect width="1" height="1" transform="translate(405.76 21.9)" fill="#999999"/>
<rect width="1" height="1" transform="translate(412.76 21.9)" fill="#999999"/>
<rect width="1" height="1" transform="translate(419.76 21.9)" fill="#999999"/>
<rect width="1" height="1" transform="translate(426.76 21.9)" fill="#999999"/>
<rect width="1" height="1" transform="translate(433.76 21.9)" fill="#999999"/>
<rect width="1" height="1" transform="translate(440.76 21.9)" fill="#999999"/>
<rect width="1" height="1" transform="translate(447.76 21.9)" fill="#999999"/>
<rect width="1" height="1" transform="translate(454.76 21.9)" fill="#999999"/>
<rect width="1" height="1" transform="translate(461.76 21.9)" fill="#999999"/>
<rect width="1" height="1" transform="translate(468.76 21.9)" fill="#999999"/>
<rect width="1" height="1" transform="translate(475.76 21.9)" fill="#999999"/>
<rect width="1" height="1" transform="translate(482.76 21.9)" fill="#999999"/>
<rect width="1" height="1" transform="translate(489.76 21.9)" fill="#999999"/>
<rect width="1" height="1" transform="translate(496.76 21.9)" fill="#999999"/>
<rect width="1" height="1" transform="translate(503.76 21.9)" fill="#999999"/>
<rect width="1" height="1" transform="translate(510.76 21.9)" fill="#999999"/>
<rect width="1" height="1" transform="translate(517.76 21.9)" fill="#999999"/>
<rect width="1" height="1" transform="translate(524.76 21.9)" fill="#999999"/>
<rect width="1" height="1" transform="translate(531.76 21.9)" fill="#999999"/>
<rect width="1" height="1" transform="translate(538.76 21.9)" fill="#999999"/>
<rect width="1" height="1" transform="translate(545.76 21.9)" fill="#999999"/>
<rect width="1" height="1" transform="translate(552.76 21.9)" fill="#999999"/>
<rect width="1" height="1" transform="translate(559.76 21.9)" fill="#999999"/>
<rect width="1" height="1" transform="translate(566.76 21.9)" fill="#999999"/>
<rect width="1" height="1" transform="translate(573.76 21.9)" fill="#999999"/>
<rect width="1" height="1" transform="translate(580.76 21.9)" fill="#999999"/>
<rect width="1" height="1" transform="translate(587.76 21.9)" fill="#999999"/>
<rect width="1" height="1" transform="translate(594.76 21.9)" fill="#999999"/>
<rect width="1" height="1" transform="translate(601.76 21.9)" fill="#999999"/>
<rect width="1" height="1" transform="translate(608.76 21.9)" fill="#999999"/>
<rect width="1" height="1" transform="translate(615.76 21.9)" fill="#999999"/>
<rect width="1" height="1" transform="translate(622.76 21.9)" fill="#999999"/>
<rect width="1" height="1" transform="translate(629.76 21.9)" fill="#999999"/>
<rect width="1" height="1" transform="translate(636.76 21.9)" fill="#999999"/>
<rect width="1" height="1" transform="translate(643.76 21.9)" fill="#999999"/>
<rect width="1" height="1" transform="translate(650.76 21.9)" fill="#999999"/>
<rect width="1" height="1" transform="translate(657.76 21.9)" fill="#999999"/>
<rect width="1" height="1" transform="translate(664.76 21.9)" fill="#999999"/>
<rect width="1" height="1" transform="translate(671.76 21.9)" fill="#999999"/>
<rect width="1" height="1" transform="translate(678.76 21.9)" fill="#999999"/>
<rect width="1" height="1" transform="translate(685.76 21.9)" fill="#999999"/>
<rect width="1" height="1" transform="translate(692.76 21.9)" fill="#999999"/>
<rect width="1" height="1" transform="translate(699.76 21.9)" fill="#999999"/>
<rect width="1" height="1" transform="translate(706.76 21.9)" fill="#999999"/>
</g>
<defs>
<linearGradient id="paint0_linear_3_16" x1="0.760025" y1="22.4" x2="791.99" y2="22.4" gradientUnits="userSpaceOnUse">
<stop stop-opacity="0"/>
<stop/>
<stop offset="1"/>
<stop offset="1" stop-opacity="0"/>
</linearGradient>
<clipPath id="clip0_3_16">
<rect width="791.23" height="44" fill="white" transform="translate(0.760025 0.399994)"/>
</clipPath>
</defs>
</svg>
