<svg width="701" height="32" viewBox="0 0 701 32" fill="none" xmlns="http://www.w3.org/2000/svg">
<rect width="1" height="1" transform="translate(0 15.5)" fill="#999999"/>
<rect width="1" height="1" transform="translate(7 15.5)" fill="#999999"/>
<rect width="1" height="1" transform="translate(14 15.5)" fill="#999999"/>
<rect width="1" height="1" transform="translate(21 15.5)" fill="#999999"/>
<rect width="1" height="1" transform="translate(28 15.5)" fill="#999999"/>
<rect width="1" height="1" transform="translate(35 15.5)" fill="#999999"/>
<rect width="1" height="1" transform="translate(42 15.5)" fill="#999999"/>
<rect width="1" height="1" transform="translate(49 15.5)" fill="#999999"/>
<rect width="1" height="1" transform="translate(56 15.5)" fill="#999999"/>
<rect width="1" height="1" transform="translate(63 15.5)" fill="#999999"/>
<rect width="1" height="1" transform="translate(70 15.5)" fill="#999999"/>
<rect width="1" height="1" transform="translate(77 15.5)" fill="#999999"/>
<rect width="1" height="1" transform="translate(84 15.5)" fill="#999999"/>
<rect width="1" height="1" transform="translate(91 15.5)" fill="#999999"/>
<rect width="1" height="1" transform="translate(98 15.5)" fill="#999999"/>
<rect width="1" height="1" transform="translate(105 15.5)" fill="#999999"/>
<rect width="1" height="1" transform="translate(112 15.5)" fill="#999999"/>
<rect width="1" height="1" transform="translate(119 15.5)" fill="#999999"/>
<rect width="1" height="1" transform="translate(126 15.5)" fill="#999999"/>
<rect width="1" height="1" transform="translate(133 15.5)" fill="#999999"/>
<rect width="1" height="1" transform="translate(140 15.5)" fill="#999999"/>
<rect width="1" height="1" transform="translate(147 15.5)" fill="#999999"/>
<rect width="1" height="1" transform="translate(154 15.5)" fill="#999999"/>
<rect width="1" height="1" transform="translate(161 15.5)" fill="#999999"/>
<rect width="1" height="1" transform="translate(168 15.5)" fill="#999999"/>
<rect width="1" height="1" transform="translate(175 15.5)" fill="#999999"/>
<rect width="1" height="1" transform="translate(182 15.5)" fill="#999999"/>
<rect width="1" height="1" transform="translate(189 15.5)" fill="#999999"/>
<rect width="1" height="1" transform="translate(196 15.5)" fill="#999999"/>
<rect width="1" height="1" transform="translate(203 15.5)" fill="#999999"/>
<rect width="1" height="1" transform="translate(210 15.5)" fill="#999999"/>
<rect width="1" height="1" transform="translate(217 15.5)" fill="#999999"/>
<rect width="1" height="1" transform="translate(224 15.5)" fill="#999999"/>
<rect width="1" height="1" transform="translate(231 15.5)" fill="#999999"/>
<rect width="1" height="1" transform="translate(238 15.5)" fill="#999999"/>
<rect width="1" height="1" transform="translate(245 15.5)" fill="#999999"/>
<rect width="1" height="1" transform="translate(252 15.5)" fill="#999999"/>
<rect width="1" height="1" transform="translate(259 15.5)" fill="#999999"/>
<rect width="1" height="1" transform="translate(266 15.5)" fill="#999999"/>
<rect width="1" height="1" transform="translate(273 15.5)" fill="#999999"/>
<rect width="1" height="1" transform="translate(280 15.5)" fill="#999999"/>
<rect width="1" height="1" transform="translate(287 15.5)" fill="#999999"/>
<rect width="1" height="1" transform="translate(294 15.5)" fill="#999999"/>
<rect width="1" height="1" transform="translate(301 15.5)" fill="#999999"/>
<rect width="1" height="1" transform="translate(308 15.5)" fill="#999999"/>
<rect width="1" height="1" transform="translate(315 15.5)" fill="#999999"/>
<rect width="1" height="1" transform="translate(322 15.5)" fill="#999999"/>
<rect width="1" height="1" transform="translate(329 15.5)" fill="#999999"/>
<rect width="1" height="1" transform="translate(336 15.5)" fill="#999999"/>
<rect width="1" height="1" transform="translate(343 15.5)" fill="#999999"/>
<rect width="1" height="1" transform="translate(350 15.5)" fill="#999999"/>
<rect width="1" height="1" transform="translate(357 15.5)" fill="#999999"/>
<rect width="1" height="1" transform="translate(364 15.5)" fill="#999999"/>
<rect width="1" height="1" transform="translate(371 15.5)" fill="#999999"/>
<rect width="1" height="1" transform="translate(378 15.5)" fill="#999999"/>
<rect width="1" height="1" transform="translate(385 15.5)" fill="#999999"/>
<rect width="1" height="1" transform="translate(392 15.5)" fill="#999999"/>
<rect width="1" height="1" transform="translate(399 15.5)" fill="#999999"/>
<rect width="1" height="1" transform="translate(406 15.5)" fill="#999999"/>
<rect width="1" height="1" transform="translate(413 15.5)" fill="#999999"/>
<rect width="1" height="1" transform="translate(420 15.5)" fill="#999999"/>
<rect width="1" height="1" transform="translate(427 15.5)" fill="#999999"/>
<rect width="1" height="1" transform="translate(434 15.5)" fill="#999999"/>
<rect width="1" height="1" transform="translate(441 15.5)" fill="#999999"/>
<rect width="1" height="1" transform="translate(448 15.5)" fill="#999999"/>
<rect width="1" height="1" transform="translate(455 15.5)" fill="#999999"/>
<rect width="1" height="1" transform="translate(462 15.5)" fill="#999999"/>
<rect width="1" height="1" transform="translate(469 15.5)" fill="#999999"/>
<rect width="1" height="1" transform="translate(476 15.5)" fill="#999999"/>
<rect width="1" height="1" transform="translate(483 15.5)" fill="#999999"/>
<rect width="1" height="1" transform="translate(490 15.5)" fill="#999999"/>
<rect width="1" height="1" transform="translate(497 15.5)" fill="#999999"/>
<rect width="1" height="1" transform="translate(504 15.5)" fill="#999999"/>
<rect width="1" height="1" transform="translate(511 15.5)" fill="#999999"/>
<rect width="1" height="1" transform="translate(518 15.5)" fill="#999999"/>
<rect width="1" height="1" transform="translate(525 15.5)" fill="#999999"/>
<rect width="1" height="1" transform="translate(532 15.5)" fill="#999999"/>
<rect width="1" height="1" transform="translate(539 15.5)" fill="#999999"/>
<rect width="1" height="1" transform="translate(546 15.5)" fill="#999999"/>
<rect width="1" height="1" transform="translate(553 15.5)" fill="#999999"/>
<rect width="1" height="1" transform="translate(560 15.5)" fill="#999999"/>
<rect width="1" height="1" transform="translate(567 15.5)" fill="#999999"/>
<rect width="1" height="1" transform="translate(574 15.5)" fill="#999999"/>
<rect width="1" height="1" transform="translate(581 15.5)" fill="#999999"/>
<rect width="1" height="1" transform="translate(588 15.5)" fill="#999999"/>
<rect width="1" height="1" transform="translate(595 15.5)" fill="#999999"/>
<rect width="1" height="1" transform="translate(602 15.5)" fill="#999999"/>
<rect width="1" height="1" transform="translate(609 15.5)" fill="#999999"/>
<rect width="1" height="1" transform="translate(616 15.5)" fill="#999999"/>
<rect width="1" height="1" transform="translate(623 15.5)" fill="#999999"/>
<rect width="1" height="1" transform="translate(630 15.5)" fill="#999999"/>
<rect width="1" height="1" transform="translate(637 15.5)" fill="#999999"/>
<rect width="1" height="1" transform="translate(644 15.5)" fill="#999999"/>
<rect width="1" height="1" transform="translate(651 15.5)" fill="#999999"/>
<rect width="1" height="1" transform="translate(658 15.5)" fill="#999999"/>
<rect width="1" height="1" transform="translate(665 15.5)" fill="#999999"/>
<rect width="1" height="1" transform="translate(672 15.5)" fill="#999999"/>
<rect width="1" height="1" transform="translate(679 15.5)" fill="#999999"/>
<rect width="1" height="1" transform="translate(686 15.5)" fill="#999999"/>
<rect width="1" height="1" transform="translate(693 15.5)" fill="#999999"/>
<rect width="1" height="1" transform="translate(700 15.5)" fill="#999999"/>
</svg>
