<svg width="49" height="49" viewBox="0 0 49 49" fill="none" xmlns="http://www.w3.org/2000/svg">
<path d="M24.1274 24.5999C24.1274 21.5868 26.51 19.1454 29.4456 19.1454C32.3845 19.1454 34.7638 21.5847 34.7638 24.5999C34.7638 27.613 32.3845 30.0545 29.4456 30.0545C26.5111 30.0545 24.1274 27.6152 24.1274 24.5999Z" fill="#1ABCFE"/>
<path d="M13.4912 35.5091C13.4912 32.4971 15.8738 30.0546 18.8094 30.0546H24.1276V35.5091C24.1276 38.52 21.745 40.9637 18.8094 40.9637C15.8738 40.9637 13.4912 38.52 13.4912 35.5091Z" fill="#0ACF83"/>
<path d="M24.1274 8.23633V19.1454H29.4456C32.3845 19.1454 34.7638 16.7029 34.7638 13.6909C34.7638 10.68 32.3845 8.23633 29.4456 8.23633H24.1274Z" fill="#FF7262"/>
<path d="M13.4912 13.6909C13.4912 16.7029 15.8738 19.1454 18.8094 19.1454H24.1276V8.23633H18.8094C15.8738 8.23633 13.4912 10.68 13.4912 13.6909Z" fill="#F24E1E"/>
<path d="M13.4912 24.5999C13.4912 27.613 15.8738 30.0545 18.8094 30.0545H24.1276V19.1454H18.8094C15.8738 19.1454 13.4912 21.5857 13.4912 24.5999Z" fill="#A259FF"/>
</svg>
