<svg width="17" height="17" viewBox="0 0 17 17" fill="none" xmlns="http://www.w3.org/2000/svg">
<path d="M14.4 8.30001V14.3C14.4 14.4326 14.3473 14.5598 14.2536 14.6536C14.1598 14.7473 14.0326 14.8 13.9 14.8H10.4C10.2674 14.8 10.1402 14.7473 10.0465 14.6536C9.9527 14.5598 9.90002 14.4326 9.90002 14.3V11.05C9.90002 10.9837 9.87369 10.9201 9.8268 10.8732C9.77992 10.8264 9.71633 10.8 9.65002 10.8H7.15002C7.08372 10.8 7.02013 10.8264 6.97325 10.8732C6.92636 10.9201 6.90002 10.9837 6.90002 11.05V14.3C6.90002 14.4326 6.84735 14.5598 6.75358 14.6536C6.65981 14.7473 6.53263 14.8 6.40002 14.8H2.90002C2.76742 14.8 2.64024 14.7473 2.54647 14.6536C2.4527 14.5598 2.40002 14.4326 2.40002 14.3V8.30001C2.40015 8.03484 2.50558 7.78058 2.69315 7.59314L7.69315 2.59314C7.88067 2.40574 8.13492 2.30048 8.40002 2.30048C8.66513 2.30048 8.91938 2.40574 9.1069 2.59314L14.1069 7.59314C14.2945 7.78058 14.3999 8.03484 14.4 8.30001Z" fill="black"/>
</svg>
