<svg width="17" height="17" viewBox="0 0 17 17" fill="none" xmlns="http://www.w3.org/2000/svg">
<path d="M8.40002 1.39999C6.94184 1.40165 5.54386 1.98164 4.51276 3.01273C3.48167 4.04383 2.90168 5.44181 2.90002 6.89999C2.90002 11.6062 7.90002 15.1606 8.11315 15.3094C8.19722 15.3683 8.29738 15.3999 8.40002 15.3999C8.50267 15.3999 8.60283 15.3683 8.6869 15.3094C8.90002 15.1606 13.9 11.6062 13.9 6.89999C13.8984 5.44181 13.3184 4.04383 12.2873 3.01273C11.2562 1.98164 9.85821 1.40165 8.40002 1.39999ZM8.40002 4.89999C8.79559 4.89999 9.18227 5.01729 9.51116 5.23705C9.84006 5.45682 10.0964 5.76917 10.2478 6.13463C10.3992 6.50008 10.4388 6.90221 10.3616 7.29017C10.2844 7.67814 10.0939 8.0345 9.81424 8.31421C9.53453 8.59391 9.17817 8.78439 8.79021 8.86156C8.40224 8.93874 8.00011 8.89913 7.63466 8.74775C7.26921 8.59638 6.95685 8.34003 6.73709 8.01113C6.51732 7.68224 6.40002 7.29556 6.40002 6.89999C6.40002 6.36956 6.61074 5.86085 6.98581 5.48578C7.36088 5.11071 7.86959 4.89999 8.40002 4.89999Z" fill="#41B883"/>
</svg>
