<svg width="17" height="17" viewBox="0 0 17 17" fill="none" xmlns="http://www.w3.org/2000/svg">
<path d="M14.9 4.29999V6.29999C14.9 6.36629 14.8737 6.42988 14.8268 6.47676C14.7799 6.52365 14.7163 6.54999 14.65 6.54999H8.90002V4.04999C8.90002 3.98368 8.92636 3.9201 8.97325 3.87321C9.02013 3.82633 9.08372 3.79999 9.15002 3.79999H14.4C14.5326 3.79999 14.6598 3.85267 14.7536 3.94643C14.8473 4.0402 14.9 4.16738 14.9 4.29999ZM14.65 7.54999H11.9V10.3H14.65C14.7163 10.3 14.7799 10.2736 14.8268 10.2268C14.8737 10.1799 14.9 10.1163 14.9 10.05V7.79999C14.9 7.73368 14.8737 7.67009 14.8268 7.62321C14.7799 7.57633 14.7163 7.54999 14.65 7.54999ZM5.90002 10.3H10.9V7.54999H5.90002V10.3ZM2.15002 10.3H4.90002V7.54999H2.15002C2.08372 7.54999 2.02013 7.57633 1.97325 7.62321C1.92636 7.67009 1.90002 7.73368 1.90002 7.79999V10.05C1.90002 10.1163 1.92636 10.1799 1.97325 10.2268C2.02013 10.2736 2.08372 10.3 2.15002 10.3ZM14.65 11.3H8.90002V13.55C8.90002 13.6163 8.92636 13.6799 8.97325 13.7268C9.02013 13.7736 9.08372 13.8 9.15002 13.8H14.4C14.5326 13.8 14.6598 13.7473 14.7536 13.6535C14.8473 13.5598 14.9 13.4326 14.9 13.3V11.55C14.9 11.4837 14.8737 11.4201 14.8268 11.3732C14.7799 11.3263 14.7163 11.3 14.65 11.3ZM2.15002 6.54999H7.90002V4.04999C7.90002 3.98368 7.87369 3.9201 7.8268 3.87321C7.77992 3.82633 7.71633 3.79999 7.65002 3.79999H2.40002C2.26742 3.79999 2.14024 3.85267 2.04647 3.94643C1.9527 4.0402 1.90002 4.16738 1.90002 4.29999V6.29999C1.90002 6.36629 1.92636 6.42988 1.97325 6.47676C2.02013 6.52365 2.08372 6.54999 2.15002 6.54999ZM1.90002 11.55V13.3C1.90002 13.4326 1.9527 13.5598 2.04647 13.6535C2.14024 13.7473 2.26742 13.8 2.40002 13.8H7.65002C7.71633 13.8 7.77992 13.7736 7.8268 13.7268C7.87369 13.6799 7.90002 13.6163 7.90002 13.55V11.3H2.15002C2.08372 11.3 2.02013 11.3263 1.97325 11.3732C1.92636 11.4201 1.90002 11.4837 1.90002 11.55Z" fill="black"/>
</svg>
