<svg width="17" height="17" viewBox="0 0 17 17" fill="none" xmlns="http://www.w3.org/2000/svg">
<path d="M14.15 11.3681L8.40004 14.7212L2.65004 11.3681C2.53619 11.3114 2.40502 11.3003 2.28323 11.3369C2.16144 11.3735 2.05817 11.4551 1.99446 11.5652C1.93074 11.6753 1.91137 11.8055 1.94027 11.9293C1.96917 12.0532 2.04419 12.1614 2.15004 12.2319L8.15004 15.7319C8.22649 15.7765 8.31341 15.7999 8.40191 15.7999C8.49042 15.7999 8.57733 15.7765 8.65379 15.7319L14.6538 12.2319C14.7114 12.1993 14.762 12.1555 14.8026 12.1032C14.8432 12.0509 14.873 11.9911 14.8903 11.9271C14.9075 11.8632 14.9119 11.7965 14.9032 11.7309C14.8945 11.6652 14.8728 11.602 14.8395 11.5448C14.8061 11.4876 14.7617 11.4376 14.7089 11.3977C14.6561 11.3578 14.5958 11.3288 14.5317 11.3123C14.4676 11.2959 14.4008 11.2924 14.3353 11.3019C14.2698 11.3115 14.2068 11.334 14.15 11.3681Z" fill="black"/>
<path d="M14.15 8.36812L8.40004 11.7212L2.65004 8.36812C2.53619 8.31144 2.40502 8.30027 2.28323 8.33688C2.16144 8.3735 2.05817 8.45515 1.99446 8.56522C1.93074 8.67528 1.91137 8.80549 1.94027 8.92934C1.96917 9.05319 2.04419 9.16138 2.15004 9.23187L8.15004 12.7319C8.22649 12.7765 8.31341 12.7999 8.40191 12.7999C8.49042 12.7999 8.57733 12.7765 8.65379 12.7319L14.6538 9.23187C14.7114 9.19926 14.762 9.15554 14.8026 9.10323C14.8432 9.05092 14.873 8.99107 14.8903 8.92715C14.9075 8.86323 14.9119 8.79652 14.9032 8.73088C14.8945 8.66524 14.8728 8.60199 14.8395 8.5448C14.8061 8.4876 14.7617 8.4376 14.7089 8.39769C14.6561 8.35779 14.5958 8.32878 14.5317 8.31234C14.4676 8.29591 14.4008 8.29237 14.3353 8.30195C14.2698 8.31152 14.2068 8.33401 14.15 8.36812Z" fill="black"/>
<path d="M2.15002 6.23187L8.15002 9.73187C8.22647 9.77646 8.31339 9.79995 8.40189 9.79995C8.4904 9.79995 8.57731 9.77646 8.65377 9.73187L14.6538 6.23187C14.7292 6.18784 14.7919 6.12479 14.8354 6.04902C14.8789 5.97324 14.9018 5.88738 14.9018 5.8C14.9018 5.71262 14.8789 5.62676 14.8354 5.55098C14.7919 5.47521 14.7292 5.41216 14.6538 5.36812L8.65377 1.86812C8.57731 1.82354 8.4904 1.80005 8.40189 1.80005C8.31339 1.80005 8.22647 1.82354 8.15002 1.86812L2.15002 5.36812C2.07454 5.41216 2.01192 5.47521 1.9684 5.55098C1.92488 5.62676 1.90198 5.71262 1.90198 5.8C1.90198 5.88738 1.92488 5.97324 1.9684 6.04902C2.01192 6.12479 2.07454 6.18784 2.15002 6.23187Z" fill="black"/>
</svg>
